<svg xmlns="http://www.w3.org/2000/svg" width="512" height="512"><defs><clipPath id="b"><circle data-name="Ellipse 0 mask" cx="131" cy="131" r="131" transform="translate(-15 -15)" fill="#fff"/></clipPath><clipPath id="a"><path d="M0 0h512v512H0z"/></clipPath></defs><g clip-path="url(#a)"><g transform="translate(140 140)" clip-path="url(#b)"><circle data-name="Ellipse 0" cx="131" cy="131" r="131" transform="translate(-15 116)" fill="#fff"/></g><circle data-name="Ellipse 12" cx="25" cy="25" r="25" transform="rotate(150 84.9 79.448)" fill="#fff"/><circle data-name="Ellipse 10" cx="25" cy="25" r="25" transform="rotate(90 -67 164)" fill="#fff"/><circle data-name="Ellipse 11" cx="25" cy="25" r="25" transform="rotate(120 20.7 115.184)" fill="#fff"/><circle data-name="Ellipse 9" cx="25" cy="25" r="25" transform="rotate(60 -218.9 248.552)" fill="#fff"/><circle data-name="Ellipse 8" cx="25" cy="25" r="25" transform="rotate(30 -633.9 479.551)" fill="#fff"/><circle data-name="Ellipse 7" cx="25" cy="25" r="25" transform="translate(231 415)" fill="#fff"/><circle data-name="Ellipse 6" cx="25" cy="25" r="25" transform="rotate(150 134.203 263.448)" fill="#fff"/><circle data-name="Ellipse 5" cx="25" cy="25" r="25" transform="rotate(120 126.932 299.184)" fill="#fff"/><circle data-name="Ellipse 4" cx="25" cy="25" r="25" transform="rotate(90 117 348)" fill="#fff"/><circle data-name="Ellipse 3" cx="25" cy="25" r="25" transform="rotate(60 99.797 432.553)" fill="#fff"/><circle data-name="Ellipse 2" cx="25" cy="25" r="25" transform="rotate(30 52.797 663.553)" fill="#fff"/><circle data-name="Ellipse 1" cx="25" cy="25" r="25" transform="translate(231 47)" fill="#fff"/></g></svg>
