<svg width="14" height="14" viewBox="0 0 14 14" fill="none" xmlns="http://www.w3.org/2000/svg">
<path d="M6.22222 3.88889V7.77778L9.52778 9.73778L10.1267 8.74222L7.38889 7.11667V3.88889H6.22222ZM14 5.44444V0L11.9467 2.05333C10.6867 0.785555 8.93667 0 7 0C3.13444 0 0 3.13444 0 7C0 10.8656 3.13444 14 7 14C10.8656 14 14 10.8656 14 7H12.4444C12.4444 10.0022 10.0022 12.4444 7 12.4444C3.99778 12.4444 1.55556 10.0022 1.55556 7C1.55556 3.99778 3.99778 1.55556 7 1.55556C8.50111 1.55556 9.86222 2.17 10.85 3.15L8.55556 5.44444H14Z" fill="white"/>
</svg>
