<svg xmlns="http://www.w3.org/2000/svg" width="70" height="70"><g clip-path="url(#clip-rays)" fill="#6787ee"><circle data-name="Ellipse 12" cx="4.187" cy="4.187" transform="rotate(150 11.336 8.315)" r="4.187"/><ellipse data-name="Ellipse 10" cx="4.186" cy="4.187" rx="4.186" ry="4.187" transform="rotate(90 -11.22 19.593)"/><circle data-name="Ellipse 11" cx="4.187" cy="4.187" transform="rotate(120 1.802 13.082)" r="4.187"/><circle data-name="Ellipse 9" cx="4.186" cy="4.186" transform="rotate(60 -33.777 30.872)" r="4.186"/><circle data-name="Ellipse 8" cx="4.186" cy="4.186" transform="rotate(30 -95.4 61.684)" r="4.186"/><ellipse data-name="Ellipse 7" cx="4.187" cy="4.186" rx="4.187" ry="4.186" transform="translate(30.812 61.627)"/><circle data-name="Ellipse 6" cx="4.187" cy="4.187" transform="rotate(150 19.593 39.128)" r="4.187"/><circle data-name="Ellipse 5" cx="4.187" cy="4.187" transform="rotate(120 19.593 43.895)" r="4.187"/><ellipse data-name="Ellipse 4" cx="4.186" cy="4.187" rx="4.186" ry="4.187" transform="rotate(90 19.593 50.406)"/><circle data-name="Ellipse 3" cx="4.186" cy="4.186" transform="rotate(60 19.592 61.684)" r="4.186"/><circle data-name="Ellipse 2" cx="4.186" cy="4.186" transform="rotate(30 19.59 92.497)" r="4.186"/><ellipse data-name="Ellipse 1" cx="4.187" cy="4.186" rx="4.187" ry="4.186" transform="translate(30.812 .001)"/></g></svg>
