<svg width="32" height="32" viewBox="0 0 32 32" fill="none" xmlns="http://www.w3.org/2000/svg">
	<path d="M13.9783 30.1017C13.9782 29.7263 14.0884 29.3593 14.295 29.0471C14.5016 28.735 14.7953 28.4915 15.139 28.3477C15.4827 28.2038 15.861 28.166 16.226 28.239C16.5911 28.3119 16.9265 28.4924 17.1898 28.7575C17.4532 29.0227 17.6328 29.3606 17.7057 29.7287C17.7787 30.0968 17.7419 30.4783 17.5998 30.8253C17.4578 31.1723 17.217 31.469 16.9079 31.6779C16.5987 31.8868 16.2351 31.9987 15.863 31.9992C15.3638 31.999 14.885 31.7991 14.5317 31.4434C14.1784 31.0876 13.9794 30.6051 13.9783 30.1017ZM21.0539 28.9639C20.866 28.6377 20.7783 28.2625 20.8019 27.886C20.8255 27.5094 20.9594 27.1484 21.1865 26.8486C21.4137 26.5489 21.7239 26.3238 22.078 26.202C22.432 26.0802 22.8139 26.0671 23.1754 26.1643C23.5368 26.2616 23.8615 26.4648 24.1084 26.7483C24.3551 27.0318 24.5131 27.3828 24.562 27.7568C24.611 28.1309 24.5487 28.5112 24.3833 28.8495C24.2178 29.188 23.9565 29.4692 23.6325 29.6577C23.3459 29.8271 23.0196 29.9162 22.6875 29.9158C22.3562 29.9159 22.0308 29.8281 21.7441 29.6609C21.4573 29.4938 21.2193 29.2534 21.0539 28.9639ZM7.85384 29.6577C7.45937 29.4259 7.16181 29.0575 7.01658 28.6209C6.87134 28.1843 6.88834 27.7094 7.0644 27.2846C7.24046 26.8597 7.56355 26.5139 7.97365 26.3114C8.38367 26.1089 8.85269 26.0636 9.29338 26.1839C9.73406 26.3043 10.1164 26.582 10.3691 26.9655C10.6219 27.3489 10.7279 27.812 10.6675 28.2684C10.607 28.7248 10.3841 29.1436 10.0404 29.4466C9.69667 29.7497 9.25545 29.9164 8.7989 29.9158C8.46684 29.9153 8.14081 29.8263 7.85384 29.6577ZM7.1694 20.8748C8.03264 19.3132 9.29368 18.0124 10.8222 17.1069C12.3506 16.2015 14.0911 15.724 15.8637 15.724C17.6363 15.724 19.3767 16.2015 20.9052 17.1069C22.4337 18.0124 23.6947 19.3132 24.558 20.8748C23.6957 22.4376 22.435 23.7396 20.9064 24.646C19.3779 25.5525 17.6369 26.0305 15.8637 26.0305C14.0905 26.0305 12.3495 25.5525 10.8209 24.646C9.29232 23.7396 8.03166 22.4376 7.1694 20.8748ZM26.8301 24.5302C26.4324 24.2998 26.1313 23.9315 25.983 23.4939C25.8347 23.0563 25.8491 22.5791 26.0237 22.1514C26.1983 21.7237 26.521 21.3746 26.9319 21.1692C27.3427 20.9637 27.8136 20.9159 28.2568 21.0347C28.7 21.1535 29.0853 21.4307 29.3408 21.8147C29.5963 22.1988 29.7047 22.6635 29.6458 23.1222C29.5869 23.5808 29.3646 24.0023 29.0204 24.3079C28.6763 24.6136 28.2336 24.7826 27.7751 24.7835C27.4437 24.7839 27.1179 24.6975 26.8294 24.533L26.8301 24.5302ZM2.07974 23.8358C1.89229 23.5093 1.8051 23.134 1.82921 22.7575C1.85332 22.381 1.98765 22.0202 2.21519 21.7207C2.44274 21.4213 2.75326 21.1967 3.10744 21.0753C3.46162 20.9539 3.84354 20.9414 4.20483 21.039C4.56613 21.1368 4.89055 21.3404 5.13703 21.6242C5.38352 21.908 5.54097 22.2591 5.58945 22.6333C5.63794 23.0074 5.57528 23.3876 5.4094 23.7257C5.24353 24.0639 4.9819 24.3449 4.65765 24.533C4.36972 24.6985 4.04407 24.7859 3.71262 24.7862C3.38167 24.7863 3.05653 24.6985 2.76988 24.5318C2.48325 24.3649 2.24522 24.1248 2.07974 23.8358ZM27.9607 15.9992C27.9605 15.6235 28.0707 15.2562 28.2775 14.9436C28.4842 14.6312 28.7782 14.3876 29.1223 14.2437C29.4663 14.0998 29.845 14.0621 30.2103 14.1353C30.5756 14.2086 30.9112 14.3894 31.1746 14.6551C31.438 14.9207 31.6173 15.2592 31.6899 15.6277C31.7625 15.9961 31.7251 16.3781 31.5824 16.7251C31.4398 17.0721 31.1983 17.3687 30.8884 17.5772C30.5786 17.7858 30.2145 17.8969 29.842 17.8967C29.5949 17.8969 29.3502 17.8479 29.1219 17.7526C28.8935 17.6573 28.686 17.5176 28.5113 17.3413C28.3366 17.1651 28.1981 16.9558 28.1036 16.7255C28.0091 16.4953 27.9606 16.2484 27.9607 15.9992ZM1.09237e-06 15.9992C-0.000132411 15.6236 0.110146 15.2566 0.316887 14.9443C0.523628 14.632 0.817541 14.3887 1.16145 14.2449C1.50536 14.1011 1.88382 14.0635 2.24895 14.1367C2.61407 14.2099 2.94947 14.3907 3.2127 14.6563C3.47594 14.9218 3.6552 15.2601 3.72779 15.6283C3.80039 15.9966 3.76306 16.3783 3.62053 16.7252C3.47801 17.0721 3.23669 17.3686 2.9271 17.5771C2.61751 17.7856 2.25356 17.8969 1.88128 17.8967C1.63415 17.8969 1.3894 17.8481 1.16104 17.7528C0.932669 17.6575 0.725169 17.5177 0.550423 17.3415C0.375676 17.1653 0.237112 16.956 0.142663 16.7257C0.0482136 16.4953 -0.000265354 16.2484 1.09237e-06 15.9992ZM26.1395 9.82456C25.9314 9.46098 25.8481 9.03827 25.9025 8.62212C25.9569 8.20589 26.1461 7.81945 26.4404 7.52273C26.7349 7.22602 27.1182 7.03562 27.5309 6.9811C27.9436 6.92658 28.3626 7.01097 28.7228 7.22119C29.0831 7.43141 29.3644 7.75568 29.5233 8.14372C29.6822 8.53176 29.7097 8.96178 29.6014 9.36719C29.4932 9.77252 29.2553 10.1305 28.9247 10.3855C28.5941 10.6406 28.1893 10.7785 27.7731 10.7777C27.4419 10.7772 27.1166 10.6888 26.8299 10.5215C26.5432 10.3542 26.3052 10.1139 26.1395 9.82456ZM2.76759 10.5217C2.36977 10.2912 2.06863 9.92269 1.92034 9.48482C1.77206 9.04688 1.78674 8.56955 1.96165 8.14181C2.13656 7.714 2.45976 7.36498 2.87098 7.15983C3.2822 6.95468 3.75336 6.90738 4.1966 7.02677C4.63984 7.14616 5.0249 7.42408 5.27996 7.80871C5.53503 8.19332 5.64269 8.65839 5.58288 9.11721C5.52306 9.57595 5.29984 9.99713 4.95485 10.3022C4.60987 10.6072 4.16667 10.7753 3.70789 10.775C3.37787 10.7751 3.05362 10.6877 2.76759 10.5217ZM21.7431 5.39355C21.3458 5.16261 21.0453 4.79387 20.8975 4.35602C20.7498 3.91817 20.7649 3.44108 20.9401 3.01364C21.1152 2.58619 21.4385 2.23755 21.8495 2.03266C22.2607 1.82779 22.7316 1.78064 23.1746 1.90001C23.6177 2.01938 24.0025 2.29713 24.2575 2.6815C24.5126 3.06587 24.6204 3.53067 24.5609 3.98927C24.5014 4.44786 24.2785 4.869 23.934 5.1742C23.5895 5.47941 23.1467 5.64786 22.6882 5.64818C22.3564 5.64842 22.0305 5.5606 21.7431 5.39355ZM7.164 4.69704C6.95592 4.33352 6.87261 3.91092 6.92699 3.49477C6.98136 3.07862 7.17037 2.69221 7.46471 2.39548C7.75904 2.09876 8.14225 1.90831 8.55484 1.85368C8.9675 1.79905 9.38644 1.8833 9.74668 2.09336C10.107 2.30342 10.3885 2.62754 10.5475 3.01544C10.7065 3.40333 10.7341 3.83331 10.6261 4.23867C10.5181 4.64403 10.2805 5.0021 9.9501 5.25732C9.6197 5.51255 9.21504 5.65066 8.7989 5.65023C8.46737 5.6503 8.14172 5.56223 7.85468 5.39488C7.56763 5.22754 7.32941 4.98684 7.164 4.69704ZM13.9817 1.89738C13.9814 1.52186 14.0916 1.1547 14.2983 0.842347C14.5049 0.529993 14.7988 0.286483 15.1427 0.142622C15.4866 -0.00123774 15.8651 -0.0389832 16.2303 0.034161C16.5954 0.107305 16.9309 0.288053 17.1942 0.553536C17.4575 0.819017 17.6368 1.15731 17.7094 1.52561C17.7821 1.89391 17.7448 2.27567 17.6023 2.62258C17.4598 2.96951 17.2185 3.266 16.9089 3.47456C16.5993 3.68312 16.2353 3.79436 15.863 3.79423C15.6157 3.7945 15.3708 3.74562 15.1422 3.6504C14.9137 3.55518 14.706 3.41547 14.531 3.23926C14.3559 3.06305 14.217 2.85378 14.1222 2.62343C14.0274 2.39307 13.9785 2.14612 13.9783 1.89669L13.9817 1.89738Z" fill="#96A4FF"/>
</svg>
